<?xml version="1.0" encoding="utf-8"?>
<!-- Generator: Adobe Illustrator 24.0.0, SVG Export Plug-In . SVG Version: 6.00 Build 0)  -->
<svg version="1.1" id="Capa_1" xmlns="http://www.w3.org/2000/svg" xmlns:xlink="http://www.w3.org/1999/xlink" x="0px" y="0px"
	 viewBox="0 0 508.5 508.5" style="enable-background:new 0 0 508.5 508.5;" xml:space="preserve">
<style type="text/css">
	.st0{fill:#45B985;}
</style>
<g>
	<g>
		<g>
			<path class="st0" d="M447.6,200.7L447.6,200.7c-9.6-13.2-24.5-27.1-42.5-27.7c-9.9-0.6-19.6,2.9-26.9,9.5
				c-7.3,6.6-11.7,16-12,25.9c0,7.2,2.3,14.1,6.5,20c5,5.6,11.1,10.2,18,13.2c32.5,19.3,57.3,56.7,44.2,93.6
				c0.7-2.2,4.2-4.8,5.6-6.6c1.7-2.2,3.5-4.3,5-6.6c3.2-4.3,6-8.8,8.6-13.4c1.4-2.7,2.9-5.5,4.2-8.2c2.2-4.8,3.9-9.6,5.2-14.7
				C470.9,256.5,465,225.4,447.6,200.7z"/>
			<path class="st0" d="M130.2,325.9c7.3-6.6,11.7-16,12-25.9c0-7.2-2.3-14.1-6.5-20c-5-5.6-11.1-10.1-18-13.2
				c-32.5-19.3-57.3-56.7-44.2-93.6c-0.7,2.2-4.2,4.8-5.6,6.6c-1.7,2.2-3.5,4.3-5,6.6c-3.2,4.3-6,8.8-8.6,13.4
				c-1.4,2.7-2.9,5.5-4.2,8.2c-2.2,4.8-3.9,9.6-5.2,14.7c-7.3,29.4-1.6,60.5,16,85.1c9.6,13.2,24.5,26.9,42.5,27.7
				C113.2,336,123,332.5,130.2,325.9z"/>
			<path class="st0" d="M291.2,138.7c7.3-1.6,14.3-4.6,20.4-8.9c33-18.6,77.8-21.3,103.3,8.5c-1.3-2.6-2.3-5.3-2.9-8.2
				c-1-2.6-2-5.2-3.2-7.6c-2.2-4.9-4.6-9.6-7.3-14.1c-1.6-2.6-3.3-5.2-5-7.6c-3-4.2-6.5-8.2-10.1-11.8c-21.7-21-51.6-31.5-81.7-28.7
				c-16.3,1.7-35.6,7.8-45.1,23c-5.5,8.2-7.3,18.3-5.2,27.9c2.2,9.6,8.1,18,16.4,23.3C276.8,137.8,284,139.4,291.2,138.7z"/>
			<path class="st0" d="M237.9,374.1c-6.2-3.6-13.4-5-20.6-4.5c-7.3,1.6-14.3,4.6-20.4,8.9c-33,18.6-77.8,21.3-103.3-8.5
				c1.3,2.6,2.3,5.3,2.9,8.2c1,2.6,2,5.2,3.2,7.6c2.2,4.9,4.6,9.6,7.3,14.1c1.6,2.6,3.3,5.2,5,7.6c3,4.2,6.5,8.2,10.1,11.8
				c21.7,21,51.6,31.5,81.7,28.7c16.3-1.7,35.6-7.8,45.1-23c5.5-8.2,7.3-18.3,5.2-27.9C252.2,387.8,246.3,379.3,237.9,374.1z"/>
			<path class="st0" d="M130.2,182.6c9.4,3,19.6,2,28.4-2.6c6.2-3.6,11.1-9.1,14.1-15.6c2.3-7.2,3.2-14.7,2.4-22.2
				c0.4-37.9,20.4-77.9,58.9-85.1c-2.9-0.1-5.8-0.7-8.6-1.6c-2.7-0.4-5.5-0.7-8.2-1c-5.3-0.6-10.7-0.9-16-0.7c-3,0-6,0.3-9.2,0.6
				c-5.2,0.6-10.4,1.4-15.3,2.9c-29.1,8.4-53.1,28.9-65.7,56.5l0,0c-6.6,15-11.1,34.7-2.6,50.5C113.1,173,120.8,179.7,130.2,182.6z"
				/>
			<path class="st0" d="M378.3,325.8c-9.4-3-19.6-2-28.4,2.6c-6.2,3.6-11.1,9.1-14.1,15.6c-2.3,7.2-3.2,14.7-2.4,22.2
				C333,404,313,444,274.5,451.3c2.9,0.1,5.8,0.7,8.6,1.6c2.7,0.4,5.5,0.7,8.2,1c5.3,0.6,10.7,0.9,16,0.7c3,0,6-0.3,9.2-0.6
				c5.2-0.6,10.4-1.4,15.3-2.9c29.1-8.4,53.1-28.9,65.7-56.5c6.6-15,11.1-34.7,2.6-50.5C395.5,335.4,387.7,328.8,378.3,325.8z"/>
		</g>
	</g>
</g>
</svg>
